<?xml version="1.0" encoding="utf-8"?>
<!-- Generator: Adobe Illustrator 15.0.0, SVG Export Plug-In . SVG Version: 6.00 Build 0)  -->
<!DOCTYPE svg PUBLIC "-//W3C//DTD SVG 1.1//EN" "http://www.w3.org/Graphics/SVG/1.1/DTD/svg11.dtd">
<svg version="1.1" id="Layer_1" xmlns="http://www.w3.org/2000/svg" xmlns:xlink="http://www.w3.org/1999/xlink" x="0px" y="0px"
	 width="150px" height="70px" viewBox="0 0 150 70" enable-background="new 0 0 150 70" xml:space="preserve">
<g>
	<path fill="#FFFFFF" d="M37.821,41.746c0.989-3.254,3.412-6.571,7.78-7.629c1.771-0.429,1.347-2.226,1.166-2.995
		c-0.145-0.616-0.344-1.461-1.31-1.461c-0.153,0-0.322,0.021-0.535,0.066c-1.223,0.258-3.309,1.807-5.232,4.006
		c0.073-0.228,0.143-0.457,0.218-0.684c0.101-0.3,0.067-0.603-0.093-0.855c-0.397-0.621-1.411-0.688-1.828-0.688
		c-0.455,0-1.539,0.077-1.789,0.787c-0.472,1.338-1.079,3.496-1.663,6.242c-3.492,7.917-9.167,11.974-12.92,11.974
		c-1.909,0-3.19-2.467-3.19-5.813c0-4.791,1.921-12.093,4.638-17.174c2.74-5.126,5.917-8.652,8.501-8.652
		c0.315,0,0.521,0.067,0.614,0.202c0.329,0.475-0.212,2.385-0.57,3.34c-0.293,0.781-0.546,1.457-0.546,1.94
		c0,0.528,0.306,0.961,0.861,1.218c0.5,0.231,1.1,0.281,1.514,0.281c0.766,0,2.153-0.194,2.492-0.921
		c0.374-0.801,0.991-3.25,0.991-4.531c0-3.806-1.514-5.579-4.765-5.579c-7.096,0-18.836,15.482-18.836,31.528
		c0,5.792,3.364,8.918,6.529,8.918c4.899,0,9.333-2.721,13.271-7.949c-0.249,2.201-0.437,4.543-0.526,6.974
		c-0.008,0.228,0.065,0.438,0.215,0.607c0.277,0.315,0.805,0.476,1.569,0.476c0,0,0,0,0,0c0.891,0,2.06-0.238,2.524-0.765
		c0.203-0.229,0.24-0.466,0.235-0.623C37.009,49.758,37.211,45.698,37.821,41.746z"/>
	<path fill="#FFFFFF" d="M120.307,47.674c-0.121-0.203-0.282-0.307-0.476-0.307c-0.14,0-0.295,0.063-0.394,0.2
		c-3.504,2.714-5.734,4.091-8.143,4.091c-1.803,0-2.603-0.709-2.968-1.475l0.06-0.051l0.038-0.075
		c0.006-0.01,0.01-0.024,0.016-0.037c6.885-4.795,8.279-8.221,8.279-11.554c0-2.4-1.459-3.892-3.808-3.892
		c-6.352,0-9.245,7.523-9.245,14.515c0,0.185,0.007,0.363,0.015,0.54c-1.738,1.083-3.186,1.632-4.701,1.632
		c-1.854,0-3.109-1.093-3.349-2.878c5.702-2.252,8.773-6.958,8.773-10.314c0-2.4-1.459-3.892-3.808-3.892
		c-6.352,0-9.245,7.523-9.245,14.515c0,4.224,2.329,6.457,6.735,6.457c2.051,0,4.243-0.728,6.55-2.16
		c1.07,1.686,3.012,2.557,5.766,2.557c3.117,0,6.56-1.67,10.235-4.961l0.062-0.056l0.04-0.074
		C121.126,49.723,120.502,47.996,120.307,47.674z M99.771,37.518c0.675,0,0.747,0.982,0.747,1.406c0,1.04-1.47,4.255-4.753,5.951
		C96.464,39.352,98.945,37.518,99.771,37.518z M111.893,38.271c0.641,0,0.711,0.936,0.711,1.339c0,0.989-1.443,4.875-4.743,7.328
		C108.24,39.956,111.106,38.271,111.893,38.271z"/>
	<path fill="#FFFFFF" d="M75.01,36.779c-0.027-0.523-0.103-1.915-1.519-1.915c-0.521,0-1.19,0.184-2.171,0.597
		c-0.735,0.31-1.086,0.614-1.086,1.506c0,0.443,0.097,0.962,0.22,1.619c0.19,1.024,0.429,2.3,0.429,3.943
		c0,3.337-1.594,8.649-2.918,8.649c-0.483,0-1.575-1.629-1.599-4.316c0.892-2.486,1.396-5.148,1.396-7.552
		c0-0.062,0.002-0.124,0.005-0.185c0.013-0.312,0.031-0.74-0.299-1.085c-0.342-0.357-0.937-0.51-1.99-0.51
		c-0.695,0-1.461,0.057-1.743,0.733c-0.189,0.452-1,3.254-1.241,7.773c-0.524,2.076-2.231,5.115-3.55,5.115
		c-0.117,0-0.297-0.027-0.498-0.271c-0.765-0.921-0.846-3.566-0.57-5.089c1.023-2.59,2.117-5.898,2.117-7.087
		c0-1.194-2.047-1.885-2.698-1.885c-0.816,0-1.165,0.502-1.638,1.625c-0.708,1.676-1.18,3.146-1.481,4.734
		c-2.912,6.278-6.28,8.547-7.665,8.547c-1.061,0-2.054-0.356-2.197-2.864c5.679-2.145,9.192-5.601,9.192-9.068
		c0-2.327-1.593-3.891-3.965-3.891c-5.448,0-9.717,5.616-9.717,12.788c0,4.465,2.059,6.924,5.795,6.924
		c1.915,0,4.96-0.861,8.236-5.138c0.496,2.827,2.416,5.006,4.632,5.006c1.607,0,3.277-1.033,4.787-2.902
		c0.892,1.582,2.443,2.79,3.938,2.79c1.388,0,2.733-0.646,3.889-1.866C73.992,50.462,75.415,44.363,75.01,36.779z M48.839,39.91
		c0.18,0,0.395,0.051,0.395,0.29c0,0.833-1.436,3.506-4.643,5.1C45.253,42.086,46.936,39.91,48.839,39.91z"/>
	<path fill="#FFFFFF" d="M86.831,35.359c-1.548,0-3.004,0.542-4.594,2.173c1.537-7.754,2.336-11.694,2.406-11.95l-0.387-0.122
		l0.408,0.04c0.002-0.036,0.006-0.072,0.01-0.108l0.011-0.111l-0.002-0.001c0.041-0.569-0.002-1.174-0.398-1.614
		c-0.413-0.458-1.099-0.653-2.29-0.653c-0.99,0-1.591,0.236-1.725,1.439c-0.127,1.148-1.422,11.118-2.509,17.059
		c-1.537,5.891-2.842,11.231-2.842,12.344c0,0.729,0.801,1.097,1.921,1.097c1.729,0,2.061-0.713,2.222-1.318
		c0.664,0.707,1.455,1.24,2.334,1.24c4.632,0,9.722-7.181,9.722-13.721C91.117,37.149,89.057,35.359,86.831,35.359z M81.301,50.712
		c-0.174,0-0.328-0.15-0.427-0.272c-0.413-0.509-0.702-1.627-0.599-2.969c0.256-1.307,0.502-2.554,0.736-3.741
		c1.622-3.438,3.692-4.146,4.864-4.146c0.572,0,0.974,0.77,0.974,1.978C86.85,46.725,83.867,50.712,81.301,50.712z"/>
</g>
</svg>
