<?xml version="1.0" encoding="utf-8"?>
<!-- Generator: Adobe Illustrator 15.1.0, SVG Export Plug-In . SVG Version: 6.00 Build 0)  -->
<!DOCTYPE svg PUBLIC "-//W3C//DTD SVG 1.1//EN" "http://www.w3.org/Graphics/SVG/1.1/DTD/svg11.dtd">
<svg version="1.1" id="Calque_1" xmlns="http://www.w3.org/2000/svg" xmlns:xlink="http://www.w3.org/1999/xlink" x="0px" y="0px"
	 width="595.28px" height="841.89px" viewBox="0 0 595.28 841.89" enable-background="new 0 0 595.28 841.89" xml:space="preserve">
<g>
	<path fill="#010101" d="M170.003,386.982c4.297-14.132,14.819-28.541,33.791-33.135c7.694-1.862,5.852-9.67,5.066-13.006
		c-0.631-2.677-1.496-6.347-5.689-6.347c-0.663,0-1.401,0.092-2.322,0.286c-5.315,1.119-14.375,7.849-22.726,17.401
		c0.314-0.992,0.618-1.985,0.947-2.974c0.434-1.301,0.289-2.618-0.406-3.71c-1.723-2.7-6.127-2.99-7.938-2.99
		c-1.975,0-6.684,0.333-7.77,3.42c-2.048,5.809-4.686,15.186-7.222,27.112c-15.169,34.384-39.818,52.004-56.119,52.004
		c-8.29,0-13.857-10.713-13.857-25.25c0-20.809,8.345-52.524,20.146-74.596c11.901-22.264,25.705-37.582,36.927-37.582
		c1.367,0,2.265,0.293,2.667,0.875c1.429,2.062-0.92,10.359-2.475,14.507c-1.273,3.393-2.372,6.326-2.372,8.426
		c0,2.293,1.329,4.173,3.741,5.293c2.171,1.004,4.774,1.217,6.576,1.217c3.326,0,9.35-0.843,10.822-3.998
		c1.624-3.479,4.306-14.114,4.306-19.679c0-16.532-6.577-24.231-20.7-24.231c-30.821,0-81.812,67.246-81.812,136.94
		c0,25.157,14.613,38.735,28.361,38.735c21.279,0,40.533-11.818,57.643-34.528c-1.081,9.565-1.896,19.733-2.285,30.293
		c-0.037,0.987,0.284,1.898,0.933,2.638c1.202,1.37,3.494,2.065,6.814,2.065c0.001,0,0.001,0,0.001,0
		c3.869,0,8.948-1.038,10.962-3.318c0.883-1.001,1.044-2.024,1.023-2.712C166.477,421.782,167.353,404.146,170.003,386.982z"/>
	<path fill="#010101" d="M528.281,412.729c-0.53-0.884-1.229-1.332-2.072-1.332c-0.604,0-1.274,0.275-1.708,0.868
		c-15.22,11.789-24.908,17.774-35.367,17.774c-7.831,0-11.302-3.084-12.885-6.408l0.252-0.221l0.168-0.322
		c0.026-0.05,0.042-0.109,0.066-0.161c29.903-20.831,35.963-35.707,35.963-50.187c0-10.428-6.338-16.904-16.538-16.904
		c-27.589,0-40.154,32.682-40.154,63.045c0,0.801,0.026,1.579,0.064,2.347c-7.552,4.705-13.838,7.085-20.426,7.085
		c-8.047,0-13.503-4.745-14.54-12.497c24.763-9.783,38.103-30.22,38.103-44.801c0-10.426-6.335-16.904-16.535-16.904
		c-27.589,0-40.155,32.68-40.155,63.045c0,18.346,10.116,28.042,29.256,28.042c8.903,0,18.428-3.16,28.445-9.379
		c4.646,7.317,13.083,11.104,25.043,11.104c13.537,0,28.494-7.251,44.46-21.549l0.269-0.242l0.171-0.322
		C531.842,421.633,529.123,414.127,528.281,412.729z M439.082,368.614c2.928,0,3.242,4.272,3.242,6.11
		c0,4.515-6.382,18.482-20.644,25.845C424.719,376.581,435.497,368.614,439.082,368.614z M491.73,371.885
		c2.787,0,3.086,4.065,3.086,5.814c0,4.297-6.264,21.176-20.601,31.833C475.864,379.209,488.317,371.885,491.73,371.885z"/>
	<path fill="#010101" d="M331.532,365.41c-0.12-2.275-0.444-8.316-6.597-8.316c-2.261,0-5.169,0.8-9.428,2.594
		c-3.197,1.345-4.719,2.669-4.719,6.541c0,1.92,0.42,4.178,0.955,7.033c0.828,4.449,1.862,9.987,1.862,17.126
		c0,14.492-6.92,37.568-12.672,37.568c-2.102,0-6.843-7.076-6.944-18.75c3.875-10.795,6.062-22.354,6.062-32.797
		c0-0.269,0.011-0.539,0.024-0.804c0.056-1.355,0.136-3.217-1.297-4.713c-1.487-1.551-4.072-2.211-8.645-2.211
		c-3.021,0-6.349,0.245-7.572,3.185c-0.819,1.965-4.341,14.131-5.387,33.763c-2.278,9.019-9.69,22.221-15.421,22.221
		c-0.51,0-1.291-0.122-2.164-1.174c-3.32-4.004-3.673-15.494-2.473-22.111c4.443-11.246,9.194-25.617,9.194-30.777
		c0-5.19-8.893-8.186-11.717-8.186c-3.542,0-5.057,2.178-7.114,7.055c-3.071,7.282-5.125,13.667-6.432,20.57
		c-12.651,27.264-27.28,37.119-33.292,37.119c-4.606,0-8.923-1.547-9.544-12.439c24.668-9.318,39.926-24.33,39.926-39.39
		c0-10.11-6.92-16.902-17.221-16.902c-23.667,0-42.206,24.397-42.206,55.544c0,19.392,8.939,30.073,25.172,30.073
		c8.317,0,21.543-3.739,35.773-22.318c2.154,12.283,10.492,21.745,20.121,21.745c6.979,0,14.235-4.489,20.795-12.605
		c3.872,6.874,10.611,12.121,17.105,12.121c6.027,0,11.869-2.813,16.892-8.112C327.109,424.84,333.288,398.351,331.532,365.41z
		 M217.856,379.01c0.784,0,1.717,0.218,1.717,1.259c0,3.62-6.236,15.227-20.166,22.152
		C202.284,388.459,209.595,379.01,217.856,379.01z"/>
	<path fill="#010101" d="M382.877,359.24c-6.723,0-13.049,2.354-19.955,9.441c6.676-33.679,10.148-50.794,10.454-51.905l-1.681-0.53
		l1.771,0.175c0.014-0.157,0.03-0.313,0.043-0.47l0.047-0.48l-0.007-0.006c0.174-2.471-0.006-5.101-1.73-7.01
		c-1.794-1.989-4.769-2.835-9.949-2.835c-4.302,0-6.908,1.023-7.488,6.25c-0.553,4.989-6.176,48.288-10.897,74.096
		c-6.679,25.586-12.346,48.783-12.346,53.614c0,3.163,3.481,4.766,8.345,4.766c7.513,0,8.95-3.099,9.651-5.727
		c2.881,3.072,6.316,5.385,10.137,5.385c20.123,0,42.223-31.188,42.223-59.594C401.494,367.021,392.546,359.24,382.877,359.24z
		 M358.854,425.927c-0.754,0-1.424-0.656-1.852-1.183c-1.794-2.213-3.05-7.067-2.602-12.896c1.116-5.674,2.183-11.092,3.2-16.251
		c7.047-14.93,16.038-18.007,21.128-18.007c2.489,0,4.228,3.344,4.228,8.587C382.957,408.608,370.003,425.927,358.854,425.927z"/>
</g>
</svg>
